<?xml version="1.0" encoding="UTF-8"?>
<svg viewBox="0 0 119.66 40" xmlns="http://www.w3.org/2000/svg">
<title>Download_on_the_App_Store_Badge_VN_RGB_blk_100217</title>
<path d="M110.13477,0H9.53468c-.3667,0-.729,0-1.09473.002-.30615.002-.60986.00781-.91895.0127A13.21476,13.21476,0,0,0,5.5171.19141a6.66509,6.66509,0,0,0-1.90088.627A6.43779,6.43779,0,0,0,1.99757,1.99707,6.25844,6.25844,0,0,0,.81935,3.61816a6.60119,6.60119,0,0,0-.625,1.90332,12.993,12.993,0,0,0-.1792,2.002C.00587,7.83008.00489,8.1377,0,8.44434V31.5586c.00489.3105.00587.6113.01515.9219a12.99232,12.99232,0,0,0,.1792,2.0019,6.58756,6.58756,0,0,0,.625,1.9043A6.20778,6.20778,0,0,0,1.99757,38.001a6.27445,6.27445,0,0,0,1.61865,1.1787,6.70082,6.70082,0,0,0,1.90088.6308,13.45514,13.45514,0,0,0,2.0039.1768c.30909.0068.6128.0107.91895.0107C8.80567,40,9.168,40,9.53468,40H110.13477c.3594,0,.7246,0,1.084-.002.3047,0,.6172-.0039.9219-.0107a13.279,13.279,0,0,0,2-.1768,6.80432,6.80432,0,0,0,1.9082-.6308,6.27742,6.27742,0,0,0,1.6172-1.1787,6.39482,6.39482,0,0,0,1.1816-1.6143,6.60413,6.60413,0,0,0,.6191-1.9043,13.50643,13.50643,0,0,0,.1856-2.0019c.0039-.3106.0039-.6114.0039-.9219.0078-.3633.0078-.7246.0078-1.0938V9.53613c0-.36621,0-.72949-.0078-1.09179,0-.30664,0-.61426-.0039-.9209a13.5071,13.5071,0,0,0-.1856-2.002,6.6177,6.6177,0,0,0-.6191-1.90332,6.46619,6.46619,0,0,0-2.7988-2.7998,6.76754,6.76754,0,0,0-1.9082-.627,13.04394,13.04394,0,0,0-2-.17676c-.3047-.00488-.6172-.01074-.9219-.01269-.3594-.002-.7246-.002-1.084-.002Z" fill="#a6a6a6"/>
<path d="M8.44483,39.125c-.30468,0-.602-.0039-.90429-.0107a12.68714,12.68714,0,0,1-1.86914-.1631,5.88381,5.88381,0,0,1-1.65674-.5479,5.40573,5.40573,0,0,1-1.397-1.0166,5.32082,5.32082,0,0,1-1.02051-1.3965,5.72186,5.72186,0,0,1-.543-1.6572,12.41351,12.41351,0,0,1-.1665-1.875c-.00634-.2109-.01464-.9131-.01464-.9131V8.44434S.88185,7.75293.8877,7.5498a12.37039,12.37039,0,0,1,.16553-1.87207,5.7555,5.7555,0,0,1,.54346-1.6621A5.37349,5.37349,0,0,1,2.61183,2.61768,5.56543,5.56543,0,0,1,4.01417,1.59521a5.82309,5.82309,0,0,1,1.65332-.54394A12.58589,12.58589,0,0,1,7.543.88721L8.44532.875H111.21387l.9131.0127a12.38493,12.38493,0,0,1,1.8584.16259,5.93833,5.93833,0,0,1,1.6709.54785,5.59374,5.59374,0,0,1,2.415,2.41993,5.76267,5.76267,0,0,1,.5352,1.64892,12.995,12.995,0,0,1,.1738,1.88721c.0029.2832.0029.5874.0029.89014.0079.375.0079.73193.0079,1.09179V30.4648c0,.3633,0,.7178-.0079,1.0752,0,.3252,0,.6231-.0039.9297a12.73126,12.73126,0,0,1-.1709,1.8535,5.739,5.739,0,0,1-.54,1.67,5.48029,5.48029,0,0,1-1.0156,1.3857,5.4129,5.4129,0,0,1-1.3994,1.0225,5.86168,5.86168,0,0,1-1.668.5498,12.54218,12.54218,0,0,1-1.8692.1631c-.2929.0068-.5996.0107-.8974.0107l-1.084.002Z"/>
<g data-name="&lt;Group&gt;">
<g data-name="&lt;Group&gt;">
<g fill="#fff" data-name="&lt;Group&gt;">
<path d="m24.769 20.301a4.9488 4.9488 0 0 1 2.3566-4.1521 5.0657 5.0657 0 0 0-3.9912-2.1577c-1.6792-0.17626-3.3072 1.0048-4.1629 1.0048-0.87227 0-2.1898-0.98733-3.6085-0.95814a5.3153 5.3153 0 0 0-4.4729 2.7279c-1.934 3.3484-0.49141 8.2695 1.3612 10.976 0.9269 1.3254 2.0102 2.8058 3.4276 2.7533 1.3871-0.05753 1.9051-0.88448 3.5794-0.88448 1.6588 0 2.1448 0.88448 3.591 0.8511 1.4884-0.02416 2.4261-1.3312 3.3205-2.6691a10.962 10.962 0 0 0 1.5184-3.0925 4.782 4.782 0 0 1-2.9192-4.3992z" data-name="&lt;Path&gt;"/>
<path d="m22.037 12.211a4.8725 4.8725 0 0 0 1.1145-3.4906 4.9575 4.9575 0 0 0-3.2076 1.6596 4.6363 4.6363 0 0 0-1.1437 3.3614 4.099 4.099 0 0 0 3.2368-1.5304z" data-name="&lt;Path&gt;"/>
</g>
</g>
<g fill="#fff">
<path d="m42.302 27.14h-4.7334l-1.1367 3.3564h-2.0049l4.4834-12.418h2.083l4.4834 12.418h-2.0391zm-4.2432-1.5488h3.752l-1.8496-5.4473h-0.05176z"/>
<path d="m55.16 25.97c0 2.8135-1.5059 4.6211-3.7783 4.6211a3.0693 3.0693 0 0 1-2.8486-1.584h-0.043v4.4844h-1.8584v-12.049h1.7989v1.5059h0.03418a3.2116 3.2116 0 0 1 2.8828-1.6006c2.2978 1e-5 3.8125 1.8164 3.8125 4.6221zm-1.9102 0c0-1.833-0.94727-3.0381-2.3926-3.0381-1.4199 0-2.375 1.2305-2.375 3.0381 0 1.8242 0.95508 3.0459 2.375 3.0459 1.4453 0 2.3926-1.1963 2.3926-3.0459z"/>
<path d="m65.125 25.97c0 2.8135-1.5059 4.6211-3.7783 4.6211a3.0693 3.0693 0 0 1-2.8486-1.584h-0.043v4.4844h-1.8584v-12.049h1.7988v1.5059h0.03418a3.2116 3.2116 0 0 1 2.8828-1.6006c2.2979 0 3.8125 1.8164 3.8125 4.6221zm-1.9102 0c0-1.833-0.94727-3.0381-2.3926-3.0381-1.4199 0-2.375 1.2305-2.375 3.0381 0 1.8242 0.95508 3.0459 2.375 3.0459 1.4453 0 2.3926-1.1963 2.3926-3.0459z"/>
<path d="m71.71 27.036c0.1377 1.2314 1.334 2.04 2.9688 2.04 1.5664 0 2.6934-0.80859 2.6934-1.919 0-0.96387-0.67969-1.541-2.2891-1.9365l-1.6094-0.3877c-2.2803-0.55078-3.3389-1.6172-3.3389-3.3477 0-2.1426 1.8672-3.6143 4.5186-3.6143 2.624 0 4.4228 1.4717 4.4834 3.6143h-1.876c-0.1123-1.2393-1.1367-1.9873-2.6338-1.9873s-2.5215 0.75684-2.5215 1.8584c0 0.87793 0.6543 1.3945 2.2549 1.79l1.3682 0.33594c2.5478 0.60254 3.6064 1.626 3.6064 3.4424 0 2.3232-1.8506 3.7783-4.794 3.7783-2.7539 0-4.6133-1.4209-4.7334-3.667z"/>
<path d="m83.346 19.3v2.1426h1.7217v1.4717h-1.7217v4.9912c0 0.77539 0.34473 1.1367 1.1016 1.1367a5.8075 5.8075 0 0 0 0.61133-0.043v1.4629a5.1035 5.1035 0 0 1-1.0322 0.08594c-1.833 0-2.5478-0.68848-2.5478-2.4443v-5.1894h-1.3164v-1.4717h1.3164v-2.1426z"/>
<path d="m86.065 25.97c0-2.8486 1.6777-4.6387 4.294-4.6387 2.625 0 4.2949 1.79 4.2949 4.6387 0 2.8564-1.6611 4.6387-4.2949 4.6387-2.6329 0-4.294-1.7822-4.294-4.6387zm6.6953 0c0-1.9541-0.89551-3.1074-2.4014-3.1074s-2.4004 1.1621-2.4004 3.1074c0 1.9619 0.89453 3.1064 2.4004 3.1064s2.4013-1.1445 2.4013-3.1064z"/>
<path d="m96.186 21.442h1.7725v1.541h0.043a2.1594 2.1594 0 0 1 2.1777-1.6357 2.8662 2.8662 0 0 1 0.63672 0.06934v1.7383a2.5979 2.5979 0 0 0-0.835-0.1123 1.8726 1.8726 0 0 0-1.9365 2.083v5.3701h-1.8584z"/>
<path d="m109.38 27.837c-0.25 1.6436-1.8506 2.7715-3.8984 2.7715-2.6338 0-4.2686-1.7646-4.2686-4.5957 0-2.8398 1.6436-4.6816 4.1904-4.6816 2.5049 0 4.0801 1.7207 4.0801 4.4658v0.63672h-6.3945v0.1123a2.358 2.358 0 0 0 2.4356 2.5644 2.0483 2.0483 0 0 0 2.0908-1.2734zm-6.2822-2.7022h4.5264a2.1773 2.1773 0 0 0-2.2207-2.2978 2.292 2.292 0 0 0-2.3057 2.2979z"/>
</g>
</g>
<g data-name="&lt;Group&gt;">
<g fill="#fff">
<path d="m37.185 14.698v-5.1235h-1.877v-0.84322h4.6768v0.84326h-1.873v5.1235z"/>
<path d="M40.27053,13.42432c0-.81055.60352-1.27783,1.6748-1.34424l1.21973-.07031v-.38867c0-.47559-.31445-.74414-.92187-.74414-.49609,0-.83984.18213-.93848.50049h-.86035c.09082-.77344.81836-1.26953,1.83984-1.26953,1.12891,0,1.76563.562,1.76563,1.51318v3.07666h-.85547v-.63281H43.124a1.515,1.515,0,0,1-1.35254.707A1.36026,1.36026,0,0,1,40.27053,13.42432Zm2.89453-.38477v-.37646l-1.09961.07031c-.62012.0415-.90137.25244-.90137.64941,0,.40527.35156.64111.835.64111A1.0615,1.0615,0,0,0,43.16506,13.03955ZM41.64357,8.01514a1.75779,1.75779,0,0,1,.58691-.09473c.5918,0,.97559.314.97559.81055a1.08088,1.08088,0,0,1-.78906.959l-.33984-.438c.26953-.08691.459-.26465.459-.44287,0-.18164-.17773-.314-.42969-.314a1.11366,1.11366,0,0,0-.46289.08691Z"/>
<path d="M45.32522,8.86328a.57572.57572,0,1,1,.5752.5415A.54735.54735,0,0,1,45.32522,8.86328Zm.13184,1.33154h.88574v4.50293h-.88574Z"/>
<path d="m52.41 14.698h-0.95508l-1.625-4.5029h0.9502l1.1211 3.5518h0.07031l1.1162-3.5518h0.94336z"/>
<path d="m58.693 13.482a1.828 1.828 0 0 1-1.9512 1.3027 2.0453 2.0453 0 0 1-2.0801-2.3242 2.0768 2.0768 0 0 1 2.0762-2.3525c1.2529 0 2.0088 0.856 2.0088 2.27v0.3101h-3.1797v0.0498a1.1902 1.1902 0 0 0 1.1992 1.29 1.0793 1.0793 0 0 0 1.0713-0.5459zm-0.31348-3.9033h-0.92676l-0.68262-0.84375h-0.06542l-0.68262 0.84375h-0.92578l1.1572-1.3686h0.96777zm-2.8125 2.4522h2.2744a1.0865 1.0865 0 0 0-1.1084-1.1665 1.1516 1.1516 0 0 0-1.166 1.1665zm2.2705-3.9326-0.92191-1.2983h0.92578l0.79 1.2983z"/>
<path d="M63.586,9.07373v1.1416h.97559v.74854H63.586V13.2793c0,.47168.19434.67822.63672.67822a2.96657,2.96657,0,0,0,.33887-.02051v.74023a2.90533,2.90533,0,0,1-.4834.04541c-.98828,0-1.38184-.34766-1.38184-1.21582v-2.543h-.71484v-.74854h.71484V9.07373Z"/>
<path d="m65.735 10.195h0.85547v0.69043h0.06641a1.2209 1.2209 0 0 1 1.2158-0.76514 1.8684 1.8684 0 0 1 0.39648 0.03711v0.877a2.4344 2.4344 0 0 0-0.49609-0.05371 1.0551 1.0551 0 0 0-1.1494 1.0586v2.6587h-0.88867z"/>
<path d="m72.943 13.482a1.828 1.828 0 0 1-1.9512 1.3027 2.0453 2.0453 0 0 1-2.0801-2.3242 2.0768 2.0768 0 0 1 2.0762-2.3525c1.2529 0 2.0088 0.856 2.0088 2.27v0.3101h-3.1797v0.0498a1.1902 1.1902 0 0 0 1.1992 1.29 1.0793 1.0793 0 0 0 1.0713-0.5459zm-0.31836-3.9033h-0.91309l-0.69144-0.90576h-0.06543l-0.69043 0.90576h-0.918l1.1572-1.4307h0.96777zm-2.8076 2.4522h2.2744a1.0865 1.0865 0 0 0-1.1084-1.1665 1.1516 1.1516 0 0 0-1.166 1.1665z"/>
<path d="m74.19 10.195h0.85547v0.71533h0.06641a1.348 1.348 0 0 1 1.3438-0.80225 1.4646 1.4646 0 0 1 1.5586 1.6748v2.915h-0.88867v-2.6918c0-0.72363-0.31445-1.0835-0.97168-1.0835a1.0329 1.0329 0 0 0-1.0752 1.1411v2.6343h-0.88867z"/>
</g>
</g>
</svg>
