<?xml version="1.0" ?><!DOCTYPE svg  PUBLIC '-//W3C//DTD SVG 1.1//EN'  'http://www.w3.org/Graphics/SVG/1.1/DTD/svg11.dtd'><svg enable-background="new 0 0 128 128" height="128px" id="Layer_1" version="1.1" viewBox="0 0 128 128" width="128px" xml:space="preserve" xmlns="http://www.w3.org/2000/svg" xmlns:xlink="http://www.w3.org/1999/xlink"><path d="M128,112c0,8.8-7.2,16-16,16H16c-8.8,0-16-7.2-16-16V16C0,7.2,7.2,0,16,0h96c8.8,0,16,7.2,16,16V112z" fill="#CC191E"/><path d="M107.122,46.404c0,0-0.86-6.064-3.499-8.733c-3.348-3.506-7.098-3.523-8.816-3.728  c-12.312-0.891-30.787-0.891-30.787-0.891h-0.04c0,0-18.474,0-30.787,0.891c-1.721,0.204-5.469,0.221-8.816,3.728  c-2.639,2.669-3.498,8.733-3.498,8.733S20,53.525,20,60.647v6.677c0,7.119,0.879,14.242,0.879,14.242s0.859,6.062,3.498,8.732  c3.348,3.508,7.745,3.396,9.702,3.764c7.041,0.676,29.922,0.885,29.922,0.885s18.49-0.028,30.806-0.918  c1.721-0.206,5.471-0.223,8.817-3.729c2.64-2.672,3.499-8.733,3.499-8.733S108,74.445,108,67.324v-6.677  C108,53.525,107.122,46.404,107.122,46.404 M53.802,76.569l-0.003-27.038l26,13.565L53.802,76.569z" fill="#FFFFFF"/></svg>